<?xml version="1.0" encoding="UTF-8" standalone="no"?>
<!DOCTYPE svg PUBLIC "-//W3C//DTD SVG 1.1//EN" "http://www.w3.org/Graphics/SVG/1.1/DTD/svg11.dtd">
<!-- Created with Vectornator (http://vectornator.io/) -->
<svg height="100%" stroke-miterlimit="10" style="fill-rule:nonzero;clip-rule:evenodd;stroke-linecap:round;stroke-linejoin:round;" version="1.1" viewBox="0 0 90.72 90.72" width="100%" xml:space="preserve" xmlns="http://www.w3.org/2000/svg" xmlns:xlink="http://www.w3.org/1999/xlink">
<defs/>
<clipPath id="ArtboardFrame">
<rect height="90.72" width="90.72" x="0" y="0"/>
</clipPath>
<g clip-path="url(#ArtboardFrame)" id="layer1">
<path d="M0 45.36C0 20.3084 20.3084 0 45.36 0C70.4116 0 90.72 20.3084 90.72 45.36C90.72 70.4116 70.4116 90.72 45.36 90.72C20.3084 90.72 0 70.4116 0 45.36Z" fill="#ffffff" fill-rule="nonzero" opacity="1" stroke="none"/>
<path d="M56.0941 9.5066C54.3098 12.039 53.1588 13.5642 52.6408 14.0823C52.1229 14.6003 51.0867 16.0967 49.5328 18.5716C47.9787 21.0465 47.1441 22.284 47.0289 22.284C46.9716 22.284 46.9141 22.284 46.8564 22.284C46.8564 22.1688 46.8564 22.0537 46.8564 21.9386C46.8564 21.7084 46.9428 20.8163 47.1154 19.2622C47.2882 17.7083 47.691 16.183 48.3241 14.6866C48.9571 13.1901 49.2449 12.1254 49.1874 11.4923C49.1298 10.8591 48.9859 10.1397 48.7556 9.33393C48.5256 8.52815 48.2665 8.01014 47.9787 7.77992C47.691 7.5497 47.2018 7.46336 46.511 7.52091C45.8205 7.57848 45.3025 7.72236 44.9571 7.95258C44.6117 8.18281 44.0651 9.53536 43.3168 12.0103C42.5684 14.4852 41.8491 17.1903 41.1583 20.1256C40.4678 23.061 39.8635 25.1617 39.3453 26.428C38.8274 27.6943 38.4532 28.9027 38.223 30.054C38.1079 30.6294 37.993 31.205 37.8779 31.7807C37.7337 31.6079 37.5898 31.4353 37.4461 31.2625C37.1583 30.9174 36.7556 30.0827 36.2373 28.7589C35.7194 27.4352 35.4316 26.3129 35.374 25.3919C35.3165 24.471 35.4029 23.6078 35.633 22.802C35.8633 21.9962 35.9497 21.2479 35.8922 20.5573C35.8345 19.8666 35.4891 19.1472 34.856 18.3989C34.223 17.6507 33.7625 17.2478 33.4747 17.1903C33.1871 17.1327 32.7839 17.2478 32.266 17.5356C31.748 17.8234 31.4891 18.2838 31.4891 18.917C31.4891 19.5501 31.3452 20.4709 31.0575 21.6796C30.7696 22.8882 30.597 24.3559 30.5393 26.0826C30.4818 27.8094 30.6257 29.3346 30.9711 30.6584C31.3165 31.9821 31.5177 33.3346 31.5755 34.7159C31.6329 36.0972 31.748 37.0469 31.9209 37.5649C32.0934 38.0829 32.1798 39.0613 32.1798 40.5003C32.1798 41.9393 31.8057 44.9896 31.0575 49.6517C30.3091 54.3138 29.8201 57.882 29.5898 60.3569C29.3595 62.8318 29.0429 64.6161 28.64 65.7098C28.2372 66.8031 27.3451 68.0406 25.9637 69.422C24.5824 70.8034 23.5176 72.2709 22.7694 73.825C22.0211 75.379 21.1866 76.8755 20.2657 78.3143C19.8053 79.0338 19.3448 79.7532 18.8844 80.4727C21.1291 81.1059 23.3737 81.7389 25.6184 82.3721C30.1078 83.6382 33.0719 84.3864 34.5106 84.6166C35.9497 84.8469 37.1296 84.9044 38.0504 84.7895C38.9713 84.6744 39.6333 84.1851 40.0361 83.3217C40.4389 82.4584 41.3022 81.1059 42.6262 79.2641C43.9499 77.4222 44.7844 76.1561 45.1297 75.4653C45.4751 74.7748 45.9643 74.0552 46.5974 73.3071C47.2306 72.5588 48.0651 71.7529 49.101 70.8896C50.1372 70.0262 51.2018 69.3357 52.2954 68.8178C53.389 68.2995 54.7991 67.3788 56.5258 66.055C58.2524 64.7313 60.5547 62.7456 63.4324 60.098C66.3102 57.4505 68.411 55.3209 69.7348 53.7094C71.0585 52.0978 71.7492 50.9465 71.8069 50.256C71.8644 49.5652 71.8356 49.0473 71.7205 48.7019C71.6053 48.3565 71.2312 47.7524 70.5982 46.8891C69.965 46.0257 69.4469 45.0183 69.0441 43.8673C68.6412 42.7162 68.2671 42.0254 67.9217 41.7952C67.5763 41.5652 67.1736 41.4788 66.713 41.5362C66.2528 41.5939 65.9648 41.421 65.8496 41.0183C65.7345 40.6154 65.2455 39.7521 64.3822 38.4282C63.5189 37.1046 62.5979 35.8672 61.6194 34.7159C60.6409 33.5649 59.6337 32.903 58.5977 32.7302C57.5618 32.5576 56.0653 32.7878 54.1084 33.421C53.13 33.7374 52.1516 34.054 51.1731 34.3705C51.2018 34.0254 51.2306 33.68 51.2595 33.3346C51.317 32.6441 51.7197 31.5216 52.468 29.9676C53.2162 28.4136 53.7632 26.9748 54.1084 25.651C54.4537 24.3272 54.9142 23.1472 55.4898 22.1113C56.0653 21.0753 56.5834 19.8954 57.0437 18.5716C57.5042 17.2478 58.1373 15.9528 58.9431 14.6866C59.7488 13.4204 60.3819 12.2405 60.8425 11.1469C61.303 10.0534 61.5332 9.07492 61.5332 8.21159C61.5332 7.34824 61.3603 6.7727 61.015 6.48492C60.6698 6.19714 60.2093 5.99569 59.6337 5.88058C59.0583 5.76547 57.8783 6.97414 56.0941 9.5066ZM60.1517 6.65758C60.4971 6.71514 60.7849 6.94536 61.015 7.34824C61.2452 7.75115 60.9863 8.84469 60.2381 10.6289C59.4899 12.4131 58.7704 13.6506 58.0798 14.3413C57.3891 15.0319 56.9286 15.3773 56.6985 15.3773C56.4683 15.3773 56.2955 15.1183 56.1804 14.6003C56.0653 14.0823 56.0653 13.6506 56.1804 13.3053C56.238 13.1326 56.2955 12.9599 56.3532 12.7873C56.2955 12.7873 56.238 12.7873 56.1804 12.7873C56.0653 12.7873 55.72 13.1901 55.1445 13.9959C54.5688 14.8017 54.2811 15.2909 54.2811 15.4636C54.2811 15.6363 54.7128 15.9528 55.576 16.4133C56.4393 16.8737 56.8424 17.3054 56.7847 17.7083C56.7273 18.1111 56.3532 19.0032 55.6624 20.3846C54.9719 21.7659 54.4537 22.6581 54.1084 23.061C53.7632 23.4639 53.3027 23.579 52.727 23.4063C52.1516 23.2336 51.4321 23.2049 50.5687 23.32C49.7054 23.435 48.9571 23.9818 48.3241 24.9603C48.0075 25.4495 47.691 25.9387 47.3743 26.428C47.2882 26.2265 47.2018 26.0251 47.1154 25.8236C46.9428 25.4207 46.9428 24.9316 47.1154 24.3559C47.2882 23.7804 48.0651 22.284 49.4464 19.8666C50.8277 17.4493 52.3241 15.3485 53.9357 13.5642C55.5473 11.78 56.6985 10.3411 57.3891 9.24759C58.0798 8.15402 58.6265 7.43459 59.0294 7.08925C59.4324 6.74392 59.8065 6.60003 60.1517 6.65758ZM47.4607 8.21159C47.7485 8.26914 47.95 8.38425 48.0651 8.55691C48.1802 8.72958 48.3241 9.36269 48.4967 10.4562C48.6695 11.5498 48.5256 12.4707 48.0651 13.2189C47.6046 13.9672 47.2306 14.9168 46.9428 16.0679C46.6549 17.219 46.2808 17.8521 45.8205 17.9673C45.36 18.0824 45.0722 18.1111 44.9571 18.0536C44.842 17.996 44.7269 17.6795 44.6117 17.1039C44.5541 16.8162 44.4966 16.5284 44.4392 16.2406C44.2663 16.3269 44.0938 16.4133 43.921 16.4996C43.7484 16.5859 43.5758 16.6723 43.4031 16.7586C43.4031 16.2694 43.4031 15.7801 43.4031 15.2909C43.4031 14.3125 43.6333 13.0463 44.0938 11.4923C44.5541 9.93827 45.1585 8.98859 45.9067 8.64326C46.6549 8.29792 47.1731 8.15402 47.4607 8.21159ZM33.5611 17.7946C33.7913 17.7946 34.1078 18.0536 34.5106 18.5716C34.9137 19.0896 35.115 19.4637 35.115 19.694C35.115 19.9241 34.9999 20.0969 34.7699 20.2119C34.5396 20.327 34.4245 20.5285 34.4245 20.8163C34.4245 21.104 34.5396 21.3631 34.7699 21.5933C34.9999 21.8234 35.0575 22.7732 34.9424 24.4423C34.8272 26.1114 34.5971 27.1474 34.2517 27.5503C34.0791 27.7517 33.9065 27.9533 33.7337 28.1546C33.9927 28.0107 34.2517 27.8668 34.5106 27.723C34.7699 27.579 35.0289 27.4352 35.2878 27.2913C35.4316 27.7804 35.5755 28.2697 35.7194 28.7589C36.007 29.7374 36.4963 30.6871 37.1871 31.6079C37.8779 32.529 38.3381 33.3634 38.5684 34.1115C38.7986 34.8598 39.1153 35.2628 39.5182 35.3202C39.9209 35.3779 40.4389 35.2338 41.072 34.8887C41.7051 34.5433 42.511 34.2843 43.4894 34.1115C44.4678 33.9389 45.1297 33.7088 45.4751 33.421C45.8205 33.1332 46.1369 32.7302 46.4248 32.2123C46.7126 31.6943 46.9428 31.4353 47.1154 31.4353C47.2882 31.4353 47.8636 31.6943 48.842 32.2123C49.8205 32.7302 50.3384 33.2482 50.3962 33.7664C50.4536 34.2843 50.8277 35.4353 51.5185 37.2195C51.8639 38.1118 52.209 39.0038 52.5544 39.896C52.0939 39.7809 51.6336 39.6657 51.1731 39.5506C50.2521 39.3203 49.6767 39.2341 49.4464 39.2916C49.2161 39.3492 49.1588 40.0685 49.2739 41.45C49.389 42.8313 49.1298 43.6082 48.4967 43.7809C47.8636 43.9536 47.5182 44.1263 47.4607 44.299C47.4321 44.3853 47.4031 44.4717 47.3743 44.558C47.7197 44.5868 48.0651 44.6155 48.4105 44.6442C49.101 44.7019 49.4752 44.7883 49.5328 44.9034C49.5615 44.9608 49.5903 45.0183 49.619 45.0759C49.2739 45.2198 48.9285 45.3637 48.5831 45.5076C47.8923 45.7955 47.4895 46.0257 47.3743 46.1983C47.3169 46.2847 47.2592 46.3708 47.2018 46.4572C47.4895 46.515 47.7775 46.5724 48.0651 46.6299C48.6405 46.745 49.101 46.9177 49.4464 47.148C49.7918 47.3783 50.0796 47.6084 50.3098 47.8385C50.5401 48.0688 50.6552 48.299 50.6552 48.5293C50.6552 48.7596 50.022 49.3063 48.7556 50.1696C47.4895 51.033 46.7413 51.6948 46.511 52.1553C46.2808 52.6158 46.0794 53.3064 45.9067 54.2274C45.7341 55.1482 45.619 56.2417 45.5615 57.5079C45.5039 58.7743 45.8205 60.1844 46.511 61.7382C47.2018 63.2923 47.8636 64.5585 48.4967 65.5369C49.1298 66.5155 49.4177 67.2062 49.36 67.609C49.3025 68.0119 48.8998 68.4437 48.1515 68.9039C47.4031 69.3644 46.7413 69.6811 46.1659 69.8537C45.5903 70.0262 44.6981 70.1414 43.4894 70.1991C42.2808 70.2565 40.5253 70.4867 38.223 70.8896C35.9209 71.2926 34.482 71.609 33.9065 71.8393C33.3308 72.0696 33.0142 72.2709 32.9568 72.4437C32.928 72.5301 32.899 72.6163 32.8704 72.7027C32.5827 72.5876 32.2949 72.4724 32.007 72.3573C31.7194 72.2422 31.4316 72.1271 31.1437 72.0119C31.2301 72.1561 31.3165 72.2998 31.4026 72.4437C31.5755 72.7315 32.0934 73.1632 32.9568 73.7386C33.3883 74.0265 33.8201 74.3143 34.2517 74.6019C33.5324 74.9473 32.8129 75.2927 32.0934 75.6381C30.6545 76.3286 29.6473 76.7315 29.0719 76.8466C28.4963 76.9617 28.1509 76.9617 28.0357 76.8466C27.9206 76.7315 27.8631 76.4437 27.8631 75.9832C27.8631 75.5229 28.2085 74.5733 28.899 73.1342C29.5898 71.6955 29.7911 70.717 29.5034 70.1991C29.2157 69.6811 29.0719 69.2493 29.0719 68.9039C29.0719 68.5588 29.2732 67.9544 29.6759 67.0911C30.0791 66.2277 30.3091 65.5657 30.3667 65.1054C30.4242 64.6449 30.6257 64.1844 30.9711 63.7239C31.3165 63.2636 31.4316 62.7456 31.3165 62.1701C31.2014 61.5944 31.1437 60.2417 31.1437 58.1123C31.1437 55.9828 31.4891 54.2274 32.1798 52.8461C32.8704 51.4648 33.3308 50.2272 33.5611 49.1337C33.7913 48.0402 33.8488 46.2847 33.7337 43.8673C33.6186 41.45 33.3596 39.4355 32.9568 37.8239C32.5539 36.2123 32.3524 35.0901 32.3524 34.4569C32.3524 33.8239 32.4675 33.3346 32.6978 32.9892C32.928 32.6441 32.7839 32.241 32.266 31.7807C31.748 31.3202 31.4026 30.6871 31.2301 29.8812C31.0575 29.0756 30.9711 27.9819 30.9711 26.6006C30.9711 25.2193 31.0862 23.953 31.3165 22.802C31.5465 21.6508 31.748 20.7299 31.9209 20.0393C32.0934 19.3486 32.3524 18.8018 32.6978 18.3989C33.0432 17.996 33.3308 17.7946 33.5611 17.7946ZM44.0938 18.6579C44.2377 18.7155 44.3815 18.7731 44.5253 18.8306C44.8132 18.9457 45.2161 18.9745 45.7341 18.917C45.993 18.8882 46.252 18.8593 46.511 18.8306C46.5399 19.7515 46.5687 20.6724 46.5974 21.5933C46.6549 23.435 46.5399 24.6725 46.252 25.3056C45.9643 25.9387 45.6476 26.3704 45.3025 26.6006C44.9571 26.8309 44.5541 26.9171 44.0938 26.8596C43.6333 26.802 43.3456 26.687 43.2304 26.5142C43.1153 26.3416 43.0865 25.5071 43.144 24.0106C43.2017 22.5142 43.3743 21.2479 43.6621 20.2119C43.8058 19.694 43.9499 19.176 44.0938 18.6579ZM52.0365 24.2697C52.8422 24.5574 53.3027 24.8739 53.4178 25.2193C53.5329 25.5646 53.3313 26.4567 52.8134 27.8955C52.2954 29.3346 51.8926 30.3418 51.6046 30.9174C51.317 31.4928 51.0867 31.8094 50.9141 31.8669C50.7413 31.9246 50.3098 31.7807 49.619 31.4353C48.9285 31.0899 48.4392 30.7733 48.1515 30.4856C47.8636 30.1979 47.7197 29.9676 47.7197 29.795C47.7197 29.6222 47.95 28.8741 48.4105 27.5503C48.8708 26.2265 49.389 25.2768 49.9644 24.7013C50.5401 24.1258 51.2306 23.9818 52.0365 24.2697ZM46.5974 26.7733C46.6838 26.7733 46.7701 26.7733 46.8564 26.7733C46.7989 27.4352 46.7413 28.097 46.6838 28.7589C46.5687 30.0827 46.2808 30.9462 45.8205 31.3489C45.36 31.7518 44.6981 32.0972 43.8348 32.3848C43.4031 32.529 42.9714 32.6727 42.5396 32.8166C42.6262 32.529 42.7125 32.241 42.7987 31.9533C42.9714 31.3777 43.0289 30.572 42.9714 29.5359C42.9138 28.4999 43.4607 27.7804 44.6117 27.3776C45.7628 26.9748 46.4248 26.7733 46.5974 26.7733ZM58.425 33.162C58.7704 33.162 59.1445 33.2771 59.5475 33.5074C59.9504 33.7374 60.8425 34.7735 62.2238 36.6154C63.6051 38.4569 64.4397 39.7234 64.7273 40.4139C65.0154 41.1047 64.9002 41.7378 64.3822 42.3133C63.8641 42.8888 63.4324 43.1767 63.087 43.1767C62.7416 43.1767 62.4828 43.0904 62.3101 42.9175C62.1374 42.745 61.7057 41.9967 61.015 40.6729C60.3244 39.3492 59.4899 38.1118 58.5114 36.9605C57.533 35.8095 57.0437 35.0613 57.0437 34.7159C57.0437 34.3705 57.1876 34.0254 57.4754 33.68C57.7632 33.3346 58.0798 33.162 58.425 33.162ZM57.4754 40.5868C57.6481 40.5868 58.0798 40.9608 58.7704 41.7091C59.4612 42.4572 59.8639 43.7234 59.979 45.5076C60.0942 47.2919 60.2093 48.3278 60.3244 48.6158C60.4396 48.9034 60.6698 49.1912 61.015 49.4788C61.3603 49.7668 61.4468 50.0832 61.274 50.4286C61.1015 50.774 60.6122 50.9755 59.8065 51.033C59.0006 51.0904 58.425 51.033 58.0798 50.8604C57.7345 50.6876 56.6985 49.6804 54.9719 47.8385C53.2452 45.9968 52.3819 44.9322 52.3819 44.6442C52.3819 44.3565 52.727 43.7234 53.4178 42.745C54.1084 41.7664 54.9142 41.1622 55.8351 40.9319C56.756 40.7018 57.3027 40.5868 57.4754 40.5868ZM44.18 41.7091C43.3168 41.9967 42.5396 42.4572 41.8491 43.0904C41.1583 43.7234 40.2087 44.2701 39.0001 44.7307C37.7915 45.1911 36.6978 45.7378 35.7194 46.3708C35.2301 46.6875 34.7409 47.004 34.2517 47.3206C34.7986 47.2343 35.3453 47.148 35.8922 47.0616C36.9856 46.8891 38.3671 46.4286 40.0361 45.6803C41.7051 44.9322 43.1728 44.0975 44.4392 43.1767C45.7054 42.2557 46.3672 41.7091 46.4248 41.5362C46.4535 41.45 46.4823 41.3637 46.511 41.2773C46.3384 41.2773 46.1659 41.2773 45.993 41.2773C45.6476 41.2773 45.0434 41.421 44.18 41.7091ZM67.2312 42.1406C67.4326 42.2845 67.6341 42.4285 67.8353 42.5723C68.2383 42.8601 68.4974 43.1477 68.6125 43.4357C68.7276 43.7234 68.8427 44.2414 68.9579 44.9896C69.0728 45.7378 69.0441 46.3422 68.8715 46.8026C68.7851 47.0329 68.6987 47.2631 68.6125 47.4933C68.8139 47.3494 69.0154 47.2055 69.2169 47.0616C69.4181 46.9177 69.6197 46.774 69.821 46.6299C70.0802 47.004 70.3392 47.3783 70.5982 47.7524C71.1161 48.5007 71.4326 49.0761 71.5477 49.4788C71.6629 49.882 71.6341 50.2847 71.4615 50.6876C71.2887 51.0904 70.9146 51.5797 70.3392 52.1553C69.7635 52.731 68.7851 53.0763 67.4038 53.1912C66.0225 53.3064 65.1879 53.2776 64.9002 53.1051C64.6122 52.9322 64.411 52.702 64.2958 52.4143C64.2381 52.2704 64.1807 52.1266 64.1229 51.9827C64.6122 52.1266 65.1015 52.2704 65.5908 52.4143C66.5692 52.702 67.4038 52.8461 68.0946 52.8461C68.7851 52.8461 69.1879 52.7883 69.303 52.6732C69.4181 52.5581 69.4759 52.4143 69.4759 52.2417C69.4759 52.0689 69.2744 51.9251 68.8715 51.8099C68.67 51.7524 68.4686 51.6948 68.2671 51.6373C68.4397 51.5222 68.6125 51.407 68.7851 51.2919C68.9579 51.1768 69.1305 51.0617 69.303 50.9465C69.0154 50.9179 68.7276 50.8891 68.4397 50.8604C68.152 50.8314 67.8643 50.8028 67.5763 50.774C67.6915 50.7163 67.8066 50.6589 67.9217 50.6014C68.0368 50.5438 68.152 50.4863 68.2671 50.4286C68.2095 50.3135 68.152 50.1984 68.0946 50.0832C67.9795 49.853 67.4612 49.5078 66.5404 49.0473C66.0799 48.8171 65.6196 48.5868 65.1591 48.3565C65.3894 48.4142 65.6196 48.4717 65.8496 48.5293C66.0799 48.5868 66.3102 48.6444 66.5404 48.7019C66.5118 48.6444 66.483 48.5868 66.454 48.5293C66.4253 48.4717 66.3965 48.4142 66.3679 48.3565C66.5692 48.3565 66.7707 48.3565 66.9721 48.3565C67.1736 48.3565 67.3751 48.3565 67.5763 48.3565C67.4902 48.2127 67.4038 48.0688 67.3174 47.925C67.1448 47.6373 66.7994 47.3206 66.2815 46.9752C65.7635 46.6299 65.4469 46.3135 65.3317 46.0257C65.2166 45.7378 65.1879 45.4788 65.2455 45.2486C65.303 45.0183 65.5332 44.7307 65.9361 44.3853C66.3389 44.04 66.6555 43.5795 66.8858 43.004C67.0009 42.7162 67.1161 42.4285 67.2312 42.1406ZM62.6555 44.7307C62.8568 44.7307 63.0584 44.7307 63.2599 44.7307C63.087 45.5652 62.9145 46.3999 62.7416 47.2343C62.5691 48.0688 62.3965 48.9034 62.2238 49.7381C62.0511 49.4788 61.8784 49.2198 61.7057 48.9609C61.3603 48.4429 61.2166 47.6948 61.274 46.7162C61.3317 45.7378 61.4755 45.1624 61.7057 44.9896C61.936 44.817 62.2525 44.7307 62.6555 44.7307ZM42.0218 48.7883C41.5612 50.1122 41.331 51.0043 41.331 51.4648C41.331 51.9251 41.5612 52.731 42.0218 53.882C42.4823 55.033 42.5974 57.1627 42.3671 60.2707C42.252 61.8247 42.1369 63.3787 42.0218 64.9327C42.0794 64.9039 42.1369 64.8752 42.1943 64.8464C42.3094 64.7888 42.5396 63.609 42.885 61.3067C43.2304 59.0043 43.4031 57.3354 43.4031 56.2995C43.4031 55.2633 43.2304 54.2561 42.885 53.2776C42.5396 52.2992 42.4245 50.9755 42.5396 49.3063C42.5974 48.4717 42.6548 47.6373 42.7125 46.8026C42.4823 47.4645 42.252 48.1265 42.0218 48.7883ZM48.2377 51.8099C48.2954 51.8099 48.3529 51.8099 48.4105 51.8099C48.3816 51.9538 48.3529 52.0978 48.3241 52.2417C48.2954 52.3856 48.2665 52.5295 48.2377 52.6732C48.5256 52.6158 48.8134 52.5581 49.101 52.5007C49.6767 52.3856 50.0796 52.4719 50.3098 52.7597C50.5401 53.0473 50.6552 53.3352 50.6552 53.623C50.6552 53.7669 50.6552 53.9108 50.6552 54.0545C51.1731 53.7381 51.6911 53.4215 52.209 53.1051C53.2452 52.4719 53.9644 52.1841 54.3675 52.2417C54.5688 52.2704 54.7703 52.2992 54.9719 52.3278C54.8277 52.6446 54.684 52.9612 54.5401 53.2776C54.3962 53.5942 54.2523 53.9108 54.1084 54.2274C54.4537 53.9684 54.7991 53.7094 55.1445 53.4504C55.8351 52.9322 56.4107 52.6732 56.8711 52.6732C57.3316 52.6732 57.8783 52.7883 58.5114 53.0186C59.1445 53.2489 59.6624 53.7381 60.0655 54.4864C60.4683 55.2346 60.9288 55.8963 61.4468 56.472C61.9647 57.0476 62.3676 57.7094 62.6555 58.4577C62.9433 59.2058 62.7706 59.9253 62.1374 60.6159C61.5042 61.3067 60.7561 61.911 59.8927 62.4289C59.0294 62.947 58.5114 63.206 58.3389 63.206C58.166 63.206 58.0508 63.0333 57.9935 62.688C57.936 62.3426 57.8208 62.1413 57.6481 62.0836C57.5618 62.0549 57.4754 62.0262 57.3891 61.9974C57.4178 62.4289 57.4467 62.8608 57.4754 63.2923C57.5042 63.7239 57.533 64.1556 57.5618 64.5873C57.5042 64.5873 57.4467 64.5873 57.3891 64.5873C57.2739 64.5873 57.0149 64.2131 56.6122 63.4649C56.2093 62.7167 55.6911 62.1123 55.058 61.652C54.7416 61.4218 54.425 61.1915 54.1084 60.9613C54.425 61.5369 54.7416 62.1123 55.058 62.688C55.6911 63.839 56.0078 64.6161 56.0078 65.019C56.0078 65.2205 56.0078 65.4218 56.0078 65.6234C55.9501 65.6234 55.8926 65.6234 55.8351 65.6234C55.72 65.6234 55.576 65.3644 55.4034 64.8464C55.2309 64.3283 55.058 64.0405 54.8855 63.9831C54.7991 63.9541 54.7128 63.9254 54.6265 63.8967C54.6552 64.3859 54.684 64.8752 54.7128 65.3644C54.7416 65.8536 54.7703 66.3428 54.7991 66.8321C54.684 66.4291 54.5688 66.0262 54.4537 65.6234C54.2236 64.8175 54.0508 64.4146 53.9357 64.4146C53.8783 64.4146 53.8206 64.4146 53.7632 64.4146C53.7918 64.8464 53.8206 65.278 53.8496 65.7098C53.8783 66.1413 53.9069 66.5728 53.9357 67.0046C53.7344 66.8609 53.5329 66.717 53.3313 66.5728C52.9285 66.2852 52.2668 66.1126 51.3457 66.055C50.4249 65.9974 49.6479 65.6234 49.0149 64.9327C48.3816 64.242 47.8923 63.4939 47.5472 62.688C47.2018 61.8823 47.0579 61.0764 47.1154 60.2707C47.1731 59.4648 47.5472 58.6016 48.2377 57.6808C48.5831 57.2202 48.9285 56.7597 49.2739 56.2995C48.8134 56.2417 48.3529 56.1843 47.8923 56.1266C46.9716 56.0115 46.5399 55.6087 46.5974 54.9179C46.6549 54.2274 46.9141 53.5366 47.3743 52.8461C47.8348 52.1553 48.1226 51.8099 48.2377 51.8099ZM63.2599 53.1912C63.7778 53.4791 64.2958 53.7669 64.8137 54.0545C65.8496 54.6302 66.6555 54.8892 67.2312 54.8317C67.5189 54.8028 67.8066 54.774 68.0946 54.7453C67.7205 55.1482 67.3461 55.5509 66.9721 55.9541C66.2238 56.7597 65.5045 57.3354 64.8137 57.6808C64.1229 58.0259 63.5189 57.7669 63.0007 56.9036C62.4828 56.0402 61.936 55.3497 61.3603 54.8317C60.7849 54.3138 60.5834 53.9394 60.7561 53.7094C60.9288 53.4791 61.1301 53.364 61.3603 53.364C61.5906 53.364 61.8784 53.6805 62.2238 54.3138C62.5691 54.9468 63.1158 55.5799 63.8641 56.213C64.2381 56.5295 64.6122 56.8461 64.9864 57.1627C64.6122 56.6159 64.2381 56.0692 63.8641 55.5223C63.4899 54.9755 63.1158 54.4287 62.7416 53.882C63.0584 54.1123 63.3748 54.3425 63.6914 54.5728C64.3246 55.033 64.7563 55.2633 64.9864 55.2633C65.1015 55.2633 65.2166 55.2633 65.3317 55.2633C64.9864 54.9179 64.6412 54.5728 64.2958 54.2274C63.9504 53.882 63.6051 53.5366 63.2599 53.1912Z" fill="#000000" fill-rule="nonzero" opacity="1" stroke="none"/>
</g>
</svg>
