<?xml version="1.0" encoding="UTF-8" standalone="no"?>
<!DOCTYPE svg PUBLIC "-//W3C//DTD SVG 1.1//EN" "http://www.w3.org/Graphics/SVG/1.1/DTD/svg11.dtd">
<!-- Created with Vectornator (http://vectornator.io/) -->
<svg height="100%" stroke-miterlimit="10" style="fill-rule:nonzero;clip-rule:evenodd;stroke-linecap:round;stroke-linejoin:round;" version="1.1" viewBox="0 0 1035 500" width="100%" xml:space="preserve" xmlns="http://www.w3.org/2000/svg" xmlns:xlink="http://www.w3.org/1999/xlink">
<defs/>
<g id="content">
<path d="M897.5 42.3551C887.167 57.0217 880.5 65.8551 877.5 68.8551C874.5 71.8551 868.5 80.5217 859.5 94.8551C850.5 109.188 845.667 116.355 845 116.355C844.667 116.355 844.333 116.355 844 116.355C844 115.688 844 115.022 844 114.355C844 113.022 844.5 107.855 845.5 98.8551C846.5 89.8551 848.833 81.0217 852.5 72.3551C856.167 63.6884 857.833 57.5217 857.5 53.8551C857.167 50.1884 856.333 46.0217 855 41.3551C853.667 36.6884 852.167 33.6884 850.5 32.3551C848.833 31.0217 846 30.5217 842 30.8551C838 31.1884 835 32.0217 833 33.3551C831 34.6884 827.833 42.5217 823.5 56.8551C819.167 71.1884 815 86.8551 811 103.855C807 120.855 803.5 133.022 800.5 140.355C797.5 147.688 795.333 154.688 794 161.355C793.333 164.688 792.667 168.022 792 171.355C791.167 170.355 790.333 169.355 789.5 168.355C787.833 166.355 785.5 161.522 782.5 153.855C779.5 146.188 777.833 139.688 777.5 134.355C777.167 129.022 777.667 124.022 779 119.355C780.333 114.688 780.833 110.355 780.5 106.355C780.167 102.355 778.167 98.1884 774.5 93.8551C770.833 89.5217 768.167 87.1884 766.5 86.8551C764.833 86.5217 762.5 87.1884 759.5 88.8551C756.5 90.5217 755 93.1884 755 96.8551C755 100.522 754.167 105.855 752.5 112.855C750.833 119.855 749.833 128.355 749.5 138.355C749.167 148.355 750 157.188 752 164.855C754 172.522 755.167 180.355 755.5 188.355C755.833 196.355 756.5 201.855 757.5 204.855C758.5 207.855 759 213.522 759 221.855C759 230.188 756.833 247.855 752.5 274.855C748.167 301.855 745.333 322.522 744 336.855C742.667 351.188 740.833 361.522 738.5 367.855C736.167 374.188 731 381.355 723 389.355C715 397.355 708.833 405.855 704.5 414.855C700.167 423.855 695.333 432.522 690 440.855C687.333 445.022 684.667 449.188 682 453.355C695 457.022 708 460.688 721 464.355C747 471.688 764.167 476.022 772.5 477.355C780.833 478.688 787.667 479.022 793 478.355C798.333 477.688 802.167 474.855 804.5 469.855C806.833 464.855 811.833 457.022 819.5 446.355C827.167 435.688 832 428.355 834 424.355C836 420.355 838.833 416.188 842.5 411.855C846.167 407.522 851 402.855 857 397.855C863 392.855 869.167 388.855 875.5 385.855C881.833 382.855 890 377.522 900 369.855C910 362.188 923.333 350.688 940 335.355C956.667 320.022 968.833 307.688 976.5 298.355C984.167 289.022 988.167 282.355 988.5 278.355C988.833 274.355 988.667 271.355 988 269.355C987.333 267.355 985.167 263.855 981.5 258.855C977.833 253.855 974.833 248.022 972.5 241.355C970.167 234.688 968 230.688 966 229.355C964 228.022 961.667 227.522 959 227.855C956.333 228.188 954.667 227.188 954 224.855C953.333 222.522 950.5 217.522 945.5 209.855C940.5 202.188 935.167 195.022 929.5 188.355C923.833 181.688 918 177.855 912 176.855C906 175.855 897.333 177.188 886 180.855C880.333 182.688 874.667 184.522 869 186.355C869.167 184.355 869.333 182.355 869.5 180.355C869.833 176.355 872.167 169.855 876.5 160.855C880.833 151.855 884 143.522 886 135.855C888 128.188 890.667 121.355 894 115.355C897.333 109.355 900.333 102.522 903 94.8551C905.667 87.1884 909.333 79.6884 914 72.3551C918.667 65.0217 922.333 58.1884 925 51.8551C927.667 45.5217 929 39.8551 929 34.8551C929 29.8551 928 26.5217 926 24.8551C924 23.1884 921.333 22.0217 918 21.3551C914.667 20.6884 907.833 27.6884 897.5 42.3551ZM921 25.8551C923 26.1884 924.667 27.5217 926 29.8551C927.333 32.1884 925.833 38.5217 921.5 48.8551C917.167 59.1884 913 66.3551 909 70.3551C905 74.3551 902.333 76.3551 901 76.3551C899.667 76.3551 898.667 74.8551 898 71.8551C897.333 68.8551 897.333 66.3551 898 64.3551C898.333 63.3551 898.667 62.3551 899 61.3551C898.667 61.3551 898.333 61.3551 898 61.3551C897.333 61.3551 895.333 63.6884 892 68.3551C888.667 73.0217 887 75.8551 887 76.8551C887 77.8551 889.5 79.6884 894.5 82.3551C899.5 85.0217 901.833 87.5217 901.5 89.8551C901.167 92.1884 899 97.3551 895 105.355C891 113.355 888 118.522 886 120.855C884 123.188 881.333 123.855 878 122.855C874.667 121.855 870.5 121.688 865.5 122.355C860.5 123.022 856.167 126.188 852.5 131.855C850.667 134.688 848.833 137.522 847 140.355C846.5 139.188 846 138.022 845.5 136.855C844.5 134.522 844.5 131.688 845.5 128.355C846.5 125.022 851 116.355 859 102.355C867 88.3551 875.667 76.1884 885 65.8551C894.333 55.5217 901 47.1884 905 40.8551C909 34.5217 912.167 30.3551 914.5 28.3551C916.833 26.3551 919 25.5217 921 25.8551ZM847.5 34.8551C849.167 35.1884 850.333 35.8551 851 36.8551C851.667 37.8551 852.5 41.5217 853.5 47.8551C854.5 54.1884 853.667 59.5217 851 63.8551C848.333 68.1884 846.167 73.6884 844.5 80.3551C842.833 87.0217 840.667 90.6884 838 91.3551C835.333 92.0217 833.667 92.1884 833 91.8551C832.333 91.5217 831.667 89.6884 831 86.3551C830.667 84.6884 830.333 83.0217 830 81.3551C829 81.8551 828 82.3551 827 82.8551C826 83.3551 825 83.8551 824 84.3551C824 81.5217 824 78.6884 824 75.8551C824 70.1884 825.333 62.8551 828 53.8551C830.667 44.8551 834.167 39.3551 838.5 37.3551C842.833 35.3551 845.833 34.5217 847.5 34.8551ZM767 90.3551C768.333 90.3551 770.167 91.8551 772.5 94.8551C774.833 97.8551 776 100.022 776 101.355C776 102.688 775.333 103.688 774 104.355C772.667 105.022 772 106.188 772 107.855C772 109.522 772.667 111.022 774 112.355C775.333 113.688 775.667 119.188 775 128.855C774.333 138.522 773 144.522 771 146.855C770 148.022 769 149.188 768 150.355C769.5 149.522 771 148.688 772.5 147.855C774 147.022 775.5 146.188 777 145.355C777.833 148.188 778.667 151.022 779.5 153.855C781.167 159.522 784 165.022 788 170.355C792 175.688 794.667 180.522 796 184.855C797.333 189.188 799.167 191.522 801.5 191.855C803.833 192.188 806.833 191.355 810.5 189.355C814.167 187.355 818.833 185.855 824.5 184.855C830.167 183.855 834 182.522 836 180.855C838 179.188 839.833 176.855 841.5 173.855C843.167 170.855 844.5 169.355 845.5 169.355C846.5 169.355 849.833 170.855 855.5 173.855C861.167 176.855 864.167 179.855 864.5 182.855C864.833 185.855 867 192.522 871 202.855C873 208.022 875 213.188 877 218.355C874.333 217.688 871.667 217.022 869 216.355C863.667 215.022 860.333 214.522 859 214.855C857.667 215.188 857.333 219.355 858 227.355C858.667 235.355 857.167 239.855 853.5 240.855C849.833 241.855 847.833 242.855 847.5 243.855C847.333 244.355 847.167 244.855 847 245.355C849 245.522 851 245.688 853 245.855C857 246.188 859.167 246.688 859.5 247.355C859.667 247.688 859.833 248.022 860 248.355C858 249.188 856 250.022 854 250.855C850 252.522 847.667 253.855 847 254.855C846.667 255.355 846.333 255.855 846 256.355C847.667 256.688 849.333 257.022 851 257.355C854.333 258.022 857 259.022 859 260.355C861 261.688 862.667 263.022 864 264.355C865.333 265.688 866 267.022 866 268.355C866 269.688 862.333 272.855 855 277.855C847.667 282.855 843.333 286.688 842 289.355C840.667 292.022 839.5 296.022 838.5 301.355C837.5 306.688 836.833 313.022 836.5 320.355C836.167 327.688 838 335.855 842 344.855C846 353.855 849.833 361.188 853.5 366.855C857.167 372.522 858.833 376.522 858.5 378.855C858.167 381.188 855.833 383.688 851.5 386.355C847.167 389.022 843.333 390.855 840 391.855C836.667 392.855 831.5 393.522 824.5 393.855C817.5 394.188 807.333 395.522 794 397.855C780.667 400.188 772.333 402.022 769 403.355C765.667 404.688 763.833 405.855 763.5 406.855C763.333 407.355 763.167 407.855 763 408.355C761.333 407.688 759.667 407.022 758 406.355C756.333 405.688 754.667 405.022 753 404.355C753.5 405.188 754 406.022 754.5 406.855C755.5 408.522 758.5 411.022 763.5 414.355C766 416.022 768.5 417.688 771 419.355C766.833 421.355 762.667 423.355 758.5 425.355C750.167 429.355 744.333 431.688 741 432.355C737.667 433.022 735.667 433.022 735 432.355C734.333 431.688 734 430.022 734 427.355C734 424.688 736 419.188 740 410.855C744 402.522 745.167 396.855 743.5 393.855C741.833 390.855 741 388.355 741 386.355C741 384.355 742.167 380.855 744.5 375.855C746.833 370.855 748.167 367.022 748.5 364.355C748.833 361.688 750 359.022 752 356.355C754 353.688 754.667 350.688 754 347.355C753.333 344.022 753 336.188 753 323.855C753 311.522 755 301.355 759 293.355C763 285.355 765.667 278.188 767 271.855C768.333 265.522 768.667 255.355 768 241.355C767.333 227.355 765.833 215.688 763.5 206.355C761.167 197.022 760 190.522 760 186.855C760 183.188 760.667 180.355 762 178.355C763.333 176.355 762.5 174.022 759.5 171.355C756.5 168.688 754.5 165.022 753.5 160.355C752.5 155.688 752 149.355 752 141.355C752 133.355 752.667 126.022 754 119.355C755.333 112.688 756.5 107.355 757.5 103.355C758.5 99.3551 760 96.1884 762 93.8551C764 91.5217 765.667 90.3551 767 90.3551ZM828 95.3551C828.833 95.6884 829.667 96.0217 830.5 96.3551C832.167 97.0217 834.5 97.1884 837.5 96.8551C839 96.6884 840.5 96.5217 842 96.3551C842.167 101.688 842.333 107.022 842.5 112.355C842.833 123.022 842.167 130.188 840.5 133.855C838.833 137.522 837 140.022 835 141.355C833 142.688 830.667 143.188 828 142.855C825.333 142.522 823.667 141.855 823 140.855C822.333 139.855 822.167 135.022 822.5 126.355C822.833 117.688 823.833 110.355 825.5 104.355C826.333 101.355 827.167 98.3551 828 95.3551ZM874 127.855C878.667 129.522 881.333 131.355 882 133.355C882.667 135.355 881.5 140.522 878.5 148.855C875.5 157.188 873.167 163.022 871.5 166.355C869.833 169.688 868.5 171.522 867.5 171.855C866.5 172.188 864 171.355 860 169.355C856 167.355 853.167 165.522 851.5 163.855C849.833 162.188 849 160.855 849 159.855C849 158.855 850.333 154.522 853 146.855C855.667 139.188 858.667 133.688 862 130.355C865.333 127.022 869.333 126.188 874 127.855ZM842.5 142.355C843 142.355 843.5 142.355 844 142.355C843.667 146.188 843.333 150.022 843 153.855C842.333 161.522 840.667 166.522 838 168.855C835.333 171.188 831.5 173.188 826.5 174.855C824 175.688 821.5 176.522 819 177.355C819.5 175.688 820 174.022 820.5 172.355C821.5 169.022 821.833 164.355 821.5 158.355C821.167 152.355 824.333 148.188 831 145.855C837.667 143.522 841.5 142.355 842.5 142.355ZM91.5 170.355C83.1667 173.688 76.3333 177.355 71 181.355C65.6667 185.355 61.1667 189.688 57.5 194.355C53.8333 199.022 51.1667 203.355 49.5 207.355C47.8333 211.355 47 216.022 47 221.355C47 226.688 48 230.688 50 233.355C52 236.022 53.5 237.355 54.5 237.355C55 237.355 55.5 237.355 56 237.355C55.6667 233.855 55.3333 230.355 55 226.855C54.3333 219.855 54.5 215.188 55.5 212.855C56.5 210.522 59.6667 206.355 65 200.355C70.3333 194.355 75.6667 189.688 81 186.355C83.6667 184.688 86.3333 183.022 89 181.355C87.8333 186.188 86.6667 191.022 85.5 195.855C83.1667 205.522 81 210.188 79 209.855C77 209.522 75 210.022 73 211.355C71 212.688 70.1667 215.855 70.5 220.855C70.8333 225.855 71.5 229.522 72.5 231.855C73.5 234.188 73.1667 244.188 71.5 261.855C69.8333 279.522 69.1667 292.688 69.5 301.355C69.8333 310.022 70.6667 314.355 72 314.355C73.3333 314.355 74.1667 313.688 74.5 312.355C74.8333 311.022 75.3333 306.522 76 298.855C76.6667 291.188 78 282.522 80 272.855C81 268.022 82 263.188 83 258.355C84 259.022 85 259.688 86 260.355C88 261.688 92.8333 266.688 100.5 275.355C108.167 284.022 114.333 290.022 119 293.355C123.667 296.688 128.833 299.355 134.5 301.355C140.167 303.355 143.833 304.355 145.5 304.355C147.167 304.355 148.667 303.855 150 302.855C151.333 301.855 151.833 300.522 151.5 298.855C151.167 297.188 148.667 296.022 144 295.355C139.333 294.688 134 292.355 128 288.355C122 284.355 115 277.688 107 268.355C103 263.688 99 259.022 95 254.355C97.8333 253.522 100.667 252.688 103.5 251.855C109.167 250.188 115.333 246.522 122 240.855C128.667 235.188 133.833 229.188 137.5 222.855C141.167 216.522 143.667 210.855 145 205.855C146.333 200.855 146.667 195.188 146 188.855C145.333 182.522 143.667 177.688 141 174.355C138.333 171.022 135.833 168.688 133.5 167.355C131.167 166.022 125.667 165.355 117 165.355C108.333 165.355 99.8333 167.022 91.5 170.355ZM113 175.355C118.333 175.355 122.5 175.855 125.5 176.855C128.5 177.855 131 179.522 133 181.855C135 184.188 136.167 187.188 136.5 190.855C136.833 194.522 136.167 199.355 134.5 205.355C132.833 211.355 130.333 217.022 127 222.355C123.667 227.688 119.5 232.188 114.5 235.855C109.5 239.522 105 241.522 101 241.855C97 242.188 94.1667 241.688 92.5 240.355C90.8333 239.022 89.6667 237.022 89 234.355C88.3333 231.688 89.8333 222.022 93.5 205.355C97.1667 188.688 99.1667 179.855 99.5 178.855C99.8333 177.855 100.833 177.022 102.5 176.355C104.167 175.688 107.667 175.355 113 175.355ZM911 179.355C913 179.355 915.167 180.022 917.5 181.355C919.833 182.688 925 188.688 933 199.355C941 210.022 945.833 217.355 947.5 221.355C949.167 225.355 948.5 229.022 945.5 232.355C942.5 235.688 940 237.355 938 237.355C936 237.355 934.5 236.855 933.5 235.855C932.5 234.855 930 230.522 926 222.855C922 215.188 917.167 208.022 911.5 201.355C905.833 194.688 903 190.355 903 188.355C903 186.355 903.833 184.355 905.5 182.355C907.167 180.355 909 179.355 911 179.355ZM453 220.355C451 222.355 450 224.188 450 225.855C450 227.522 450.667 229.022 452 230.355C453.333 231.688 454.667 232.188 456 231.855C457.333 231.522 458.667 230.355 460 228.355C461.333 226.355 462 224.522 462 222.855C462 221.188 461 219.855 459 218.855C457 217.855 455 218.355 453 220.355ZM585.5 219.855C583.833 221.522 583 223.522 583 225.855C583 228.188 583.5 229.855 584.5 230.855C585.5 231.855 586.833 232.188 588.5 231.855C590.167 231.522 591.667 230.355 593 228.355C594.333 226.355 594.833 224.355 594.5 222.355C594.167 220.355 593 219.022 591 218.355C589 217.688 587.167 218.188 585.5 219.855ZM905.5 222.355C906.5 222.355 909 224.522 913 228.855C917 233.188 919.333 240.522 920 250.855C920.667 261.188 921.333 267.188 922 268.855C922.667 270.522 924 272.188 926 273.855C928 275.522 928.5 277.355 927.5 279.355C926.5 281.355 923.667 282.522 919 282.855C914.333 283.188 911 282.855 909 281.855C907 280.855 901 275.022 891 264.355C881 253.688 876 247.522 876 245.855C876 244.188 878 240.522 882 234.855C886 229.188 890.667 225.688 896 224.355C901.333 223.022 904.5 222.355 905.5 222.355ZM828.5 228.855C823.5 230.522 819 233.188 815 236.855C811 240.522 805.5 243.688 798.5 246.355C791.5 249.022 785.167 252.188 779.5 255.855C776.667 257.688 773.833 259.522 771 261.355C774.167 260.855 777.333 260.355 780.5 259.855C786.833 258.855 794.833 256.188 804.5 251.855C814.167 247.522 822.667 242.688 830 237.355C837.333 232.022 841.167 228.855 841.5 227.855C841.667 227.355 841.833 226.855 842 226.355C841 226.355 840 226.355 839 226.355C837 226.355 833.5 227.188 828.5 228.855ZM176.5 233.355C170.833 237.355 167 240.688 165 243.355C163 246.022 160.833 250.355 158.5 256.355C156.167 262.355 155.333 268.022 156 273.355C156.667 278.688 158 282.522 160 284.855C162 287.188 164.167 288.855 166.5 289.855C168.833 290.855 171.5 291.355 174.5 291.355C177.5 291.355 180.333 290.855 183 289.855C185.667 288.855 190 285.688 196 280.355C199 277.688 202 275.022 205 272.355C206 274.855 207 277.355 208 279.855C210 284.855 212 287.855 214 288.855C216 289.855 218.833 290.355 222.5 290.355C226.167 290.355 230 289.522 234 287.855C238 286.188 242.5 283.188 247.5 278.855C250 276.688 252.5 274.522 255 272.355C255.333 273.688 255.667 275.022 256 276.355C256.667 279.022 257.667 281.188 259 282.855C260.333 284.522 263 285.855 267 286.855C271 287.855 274.167 288.022 276.5 287.355C278.833 286.688 281.833 284.688 285.5 281.355C289.167 278.022 292.667 275.855 296 274.855C299.333 273.855 303.167 271.855 307.5 268.855C309.667 267.355 311.833 265.855 314 264.355C314.833 266.522 315.667 268.688 316.5 270.855C318.167 275.188 320.167 278.022 322.5 279.355C324.833 280.688 327.833 281.022 331.5 280.355C335.167 279.688 338.833 277.522 342.5 273.855C344.333 272.022 346.167 270.188 348 268.355C348 271.522 348 274.688 348 277.855C348 284.188 345.667 291.188 341 298.855C336.333 306.522 332.667 314.522 330 322.855C327.333 331.188 326 338.522 326 344.855C326 351.188 327 355.855 329 358.855C331 361.855 333.667 363.188 337 362.855C340.333 362.522 343.333 360.522 346 356.855C348.667 353.188 351 346.688 353 337.355C355 328.022 356.333 318.022 357 307.355C357.667 296.688 358.5 290.022 359.5 287.355C360.5 284.688 364 279.855 370 272.855C373 269.355 376 265.855 379 262.355C378.5 266.022 378 269.688 377.5 273.355C376.5 280.688 376.5 285.188 377.5 286.855C378.5 288.522 380 289.188 382 288.855C384 288.522 388.833 282.522 396.5 270.855C404.167 259.188 408.667 253.355 410 253.355C411.333 253.355 412.167 258.688 412.5 269.355C412.833 280.022 413.5 286.522 414.5 288.855C415.5 291.188 416.667 292.855 418 293.855C419.333 294.855 421.5 295.022 424.5 294.355C427.5 293.688 431 290.688 435 285.355C437 282.688 439 280.022 441 277.355C441.833 279.022 442.667 280.688 443.5 282.355C445.167 285.688 447 287.522 449 287.855C451 288.188 453.5 287.855 456.5 286.855C459.5 285.855 463.333 283.688 468 280.355C472.667 277.022 478 272.022 484 265.355C490 258.688 495.333 256.855 500 259.855C504.667 262.855 505.833 267.022 503.5 272.355C501.167 277.688 500 281.855 500 284.855C500 287.855 501 290.355 503 292.355C505 294.355 507 295.188 509 294.855C511 294.522 513 293.355 515 291.355C517 289.355 518.5 287.022 519.5 284.355C520.5 281.688 520.5 277.522 519.5 271.855C518.5 266.188 520.333 261.355 525 257.355C529.667 253.355 535.167 253.522 541.5 257.855C547.833 262.188 549.833 267.022 547.5 272.355C545.167 277.688 544 281.855 544 284.855C544 287.855 545.167 290.355 547.5 292.355C549.833 294.355 552.333 294.855 555 293.855C557.667 292.855 559.833 291.022 561.5 288.355C563.167 285.688 564.167 282.355 564.5 278.355C564.833 274.355 564.5 270.855 563.5 267.855C562.5 264.855 564.333 261.355 569 257.355C571.333 255.355 573.667 253.355 576 251.355C575.667 256.022 575.333 260.688 575 265.355C574.333 274.688 574.333 280.188 575 281.855C575.667 283.522 577 285.022 579 286.355C581 287.688 583.667 288.022 587 287.355C590.333 286.688 593.333 285.522 596 283.855C598.667 282.188 603.167 278.355 609.5 272.355C612.667 269.355 615.833 266.355 619 263.355C619.5 266.688 620 270.022 620.5 273.355C621.5 280.022 622.5 284.022 623.5 285.355C624.5 286.688 625.667 287.188 627 286.855C628.333 286.522 630.833 281.022 634.5 270.355C636.333 265.022 638.167 259.688 640 254.355C640.167 257.022 640.333 259.688 640.5 262.355C640.833 267.688 641.667 271.855 643 274.855C643.667 276.355 644.333 277.855 645 279.355C645.667 279.022 646.333 278.688 647 278.355C648.333 277.688 650.667 274.022 654 267.355C657.333 260.688 659.333 257.355 660 257.355C660.333 257.355 660.667 257.355 661 257.355C660.5 260.522 660 263.688 659.5 266.855C658.5 273.188 658.167 277.355 658.5 279.355C658.833 281.355 659.667 283.022 661 284.355C662.333 285.688 664.333 286.022 667 285.355C669.667 284.688 672.333 283.022 675 280.355C676.333 279.022 677.667 277.688 679 276.355C679.833 277.855 680.667 279.355 681.5 280.855C683.167 283.855 685.333 285.855 688 286.855C690.667 287.855 693.333 288.188 696 287.855C698.667 287.522 702.333 285.522 707 281.855C711.667 278.188 717.5 274.688 724.5 271.355C731.5 268.022 735 265.188 735 262.855C735 261.688 735 260.522 735 259.355C733 260.355 731 261.355 729 262.355C727 263.355 725 264.355 723 265.355C724 263.022 725 260.688 726 258.355C728 253.688 728.667 249.355 728 245.355C727.333 241.355 725.667 238.522 723 236.855C720.333 235.188 717.5 234.355 714.5 234.355C711.5 234.355 708 236.022 704 239.355C700 242.688 697 244.688 695 245.355C693 246.022 690.333 248.355 687 252.355C683.667 256.355 681.667 259.522 681 261.855C680.333 264.188 678.833 266.688 676.5 269.355C674.167 272.022 672 273.855 670 274.855C669 275.355 668 275.855 667 276.355C667 274.855 667 273.355 667 271.855C667 268.855 667.5 266.022 668.5 263.355C669.5 260.688 669.833 257.522 669.5 253.855C669.167 250.188 668.667 248.022 668 247.355C667.333 246.688 665.833 246.688 663.5 247.355C661.167 248.022 658.167 250.855 654.5 255.855C652.667 258.355 650.833 260.855 649 263.355C649 259.688 649 256.022 649 252.355C649 245.022 648.667 240.855 648 239.855C647.333 238.855 646.167 238.355 644.5 238.355C642.833 238.355 641.167 239.022 639.5 240.355C637.833 241.688 636.167 244.188 634.5 247.855C633.667 249.688 632.833 251.522 632 253.355C631.833 251.355 631.667 249.355 631.5 247.355C631.167 243.355 630.167 241.188 628.5 240.855C626.833 240.522 625.333 242.688 624 247.355C622.667 252.022 618.5 257.355 611.5 263.355C604.5 269.355 598.667 273.522 594 275.855C589.333 278.188 586.5 278.855 585.5 277.855C584.5 276.855 584 274.855 584 271.855C584 268.855 584.833 263.855 586.5 256.855C588.167 249.855 588.833 245.188 588.5 242.855C588.333 241.688 588.167 240.522 588 239.355C585 240.855 582 242.355 579 243.855C573 246.855 568.333 249.855 565 252.855C561.667 255.855 559.333 257.355 558 257.355C556.667 257.355 554.333 256.355 551 254.355C547.667 252.355 545.167 250.188 543.5 247.855C541.833 245.522 541.833 243.688 543.5 242.355C545.167 241.022 546.667 240.355 548 240.355C549.333 240.355 550.833 241.188 552.5 242.855C554.167 244.522 555.5 245.355 556.5 245.355C557.5 245.355 558.167 244.188 558.5 241.855C558.833 239.522 557.833 237.355 555.5 235.355C553.167 233.355 550.667 232.355 548 232.355C545.333 232.355 542.333 233.522 539 235.855C535.667 238.188 533.833 240.355 533.5 242.355C533.167 244.355 530.833 246.522 526.5 248.855C522.167 251.188 519.333 253.188 518 254.855C516.667 256.522 515.333 257.355 514 257.355C512.667 257.355 509.833 256.022 505.5 253.355C501.167 250.688 498.667 248.522 498 246.855C497.333 245.188 497.833 243.688 499.5 242.355C501.167 241.022 502.667 240.355 504 240.355C505.333 240.355 506.833 241.188 508.5 242.855C510.167 244.522 511.5 245.355 512.5 245.355C513.5 245.355 514.167 244.355 514.5 242.355C514.833 240.355 513.833 238.188 511.5 235.855C509.167 233.522 506.667 232.355 504 232.355C501.333 232.355 499.167 232.688 497.5 233.355C495.833 234.022 494 235.522 492 237.855C490 240.188 488.833 242.522 488.5 244.855C488.167 247.188 488.333 249.188 489 250.855C489.667 252.522 484.833 257.522 474.5 265.855C464.167 274.188 458 278.355 456 278.355C454 278.355 452.667 277.855 452 276.855C451.333 275.855 452 269.855 454 258.855C456 247.855 456.667 241.855 456 240.855C455.333 239.855 454.167 239.688 452.5 240.355C450.833 241.022 449.333 242.188 448 243.855C446.667 245.522 445 250.022 443 257.355C441 264.688 438.667 270.355 436 274.355C433.333 278.355 430.667 281.355 428 283.355C426.667 284.355 425.333 285.355 424 286.355C423.667 285.855 423.333 285.355 423 284.855C422.333 283.855 422 278.355 422 268.355C422 258.355 421.167 251.688 419.5 248.355C417.833 245.022 415.667 243.355 413 243.355C410.333 243.355 408 244.022 406 245.355C404 246.688 401.167 249.688 397.5 254.355C393.833 259.022 391.333 262.855 390 265.855C389.333 267.355 388.667 268.855 388 270.355C387.833 269.522 387.667 268.688 387.5 267.855C387.167 266.188 387.833 263.188 389.5 258.855C391.167 254.522 392 251.022 392 248.355C392 245.688 391.833 244.022 391.5 243.355C391.167 242.688 390.167 242.522 388.5 242.855C386.833 243.188 381.5 248.522 372.5 258.855C368 264.022 363.5 269.188 359 274.355C359.667 267.688 360.333 261.022 361 254.355C362.333 241.022 362 234.188 360 233.855C358 233.522 356.167 234.355 354.5 236.355C352.833 238.355 350.833 238.855 348.5 237.855C346.167 236.855 342.333 236.855 337 237.855C331.667 238.855 327.833 240.355 325.5 242.355C323.167 244.355 320.667 247.522 318 251.855C315.333 256.188 312 259.522 308 261.855C304 264.188 301.667 265.188 301 264.855C300.667 264.688 300.333 264.522 300 264.355C301 262.355 302 260.355 303 258.355C305 254.355 306 250.688 306 247.355C306 244.022 304.833 241.188 302.5 238.855C300.167 236.522 297.167 235.188 293.5 234.855C289.833 234.522 285.833 236.022 281.5 239.355C277.167 242.688 274 244.688 272 245.355C270 246.022 267.5 248.522 264.5 252.855C261.5 257.188 256.667 262.188 250 267.855C243.333 273.522 238 277.355 234 279.355C230 281.355 226.5 282.355 223.5 282.355C220.5 282.355 218.167 281.188 216.5 278.855C214.833 276.522 214 273.688 214 270.355C214 267.022 215.333 262.355 218 256.355C220.667 250.355 223 246.522 225 244.855C227 243.188 228.833 242.355 230.5 242.355C231.333 242.355 232.167 242.355 233 242.355C232 245.022 231 247.688 230 250.355C228 255.688 227.333 259.022 228 260.355C228.667 261.688 230 262.522 232 262.855C234 263.188 237.333 259.855 242 252.855C246.667 245.855 248.833 241.688 248.5 240.355C248.167 239.022 247 238.355 245 238.355C243 238.355 241.333 237.688 240 236.355C238.667 235.022 237.167 234.188 235.5 233.855C233.833 233.522 231.5 233.855 228.5 234.855C225.5 235.855 222.667 237.522 220 239.855C217.333 242.188 214.833 246.022 212.5 251.355C210.167 256.688 206.833 261.688 202.5 266.355C198.167 271.022 193.833 274.855 189.5 277.855C185.167 280.855 181.167 282.522 177.5 282.855C173.833 283.188 170.833 282.022 168.5 279.355C166.167 276.688 165.167 273.355 165.5 269.355C165.833 265.355 167.5 263.188 170.5 262.855C173.5 262.522 176.833 261.522 180.5 259.855C184.167 258.188 187.5 256.188 190.5 253.855C193.5 251.522 195.833 249.022 197.5 246.355C199.167 243.688 200 240.688 200 237.355C200 234.022 199.667 231.855 199 230.855C198.333 229.855 195.833 229.022 191.5 228.355C187.167 227.688 182.167 229.355 176.5 233.355ZM962 231.355C963.167 232.188 964.333 233.022 965.5 233.855C967.833 235.522 969.333 237.188 970 238.855C970.667 240.522 971.333 243.522 972 247.855C972.667 252.188 972.5 255.688 971.5 258.355C971 259.688 970.5 261.022 970 262.355C971.167 261.522 972.333 260.688 973.5 259.855C974.667 259.022 975.833 258.188 977 257.355C978.5 259.522 980 261.688 981.5 263.855C984.5 268.188 986.333 271.522 987 273.855C987.667 276.188 987.5 278.522 986.5 280.855C985.5 283.188 983.333 286.022 980 289.355C976.667 292.688 971 294.688 963 295.355C955 296.022 950.167 295.855 948.5 294.855C946.833 293.855 945.667 292.522 945 290.855C944.667 290.022 944.333 289.188 944 288.355C946.833 289.188 949.667 290.022 952.5 290.855C958.167 292.522 963 293.355 967 293.355C971 293.355 973.333 293.022 974 292.355C974.667 291.688 975 290.855 975 289.855C975 288.855 973.833 288.022 971.5 287.355C970.333 287.022 969.167 286.688 968 286.355C969 285.688 970 285.022 971 284.355C972 283.688 973 283.022 974 282.355C972.333 282.188 970.667 282.022 969 281.855C967.333 281.688 965.667 281.522 964 281.355C964.667 281.022 965.333 280.688 966 280.355C966.667 280.022 967.333 279.688 968 279.355C967.667 278.688 967.333 278.022 967 277.355C966.333 276.022 963.333 274.022 958 271.355C955.333 270.022 952.667 268.688 950 267.355C951.333 267.688 952.667 268.022 954 268.355C955.333 268.688 956.667 269.022 958 269.355C957.833 269.022 957.667 268.688 957.5 268.355C957.333 268.022 957.167 267.688 957 267.355C958.167 267.355 959.333 267.355 960.5 267.355C961.667 267.355 962.833 267.355 964 267.355C963.5 266.522 963 265.688 962.5 264.855C961.5 263.188 959.5 261.355 956.5 259.355C953.5 257.355 951.667 255.522 951 253.855C950.333 252.188 950.167 250.688 950.5 249.355C950.833 248.022 952.167 246.355 954.5 244.355C956.833 242.355 958.667 239.688 960 236.355C960.667 234.688 961.333 233.022 962 231.355ZM189.5 236.355C191.833 237.022 192.833 238.188 192.5 239.855C192.167 241.522 190.167 244.022 186.5 247.355C182.833 250.688 179 253.022 175 254.355C173 255.022 171 255.688 169 256.355C170.167 254.022 171.333 251.688 172.5 249.355C174.833 244.688 177.667 241.188 181 238.855C184.333 236.522 187.167 235.688 189.5 236.355ZM292.5 244.355C294.833 245.022 296.167 246.355 296.5 248.355C296.833 250.355 296.5 252.855 295.5 255.855C294.5 258.855 293 261.522 291 263.855C290 265.022 289 266.188 288 267.355C286.833 266.022 285.667 264.688 284.5 263.355C282.167 260.688 281 258.188 281 255.855C281 253.522 281.5 251.355 282.5 249.355C283.5 247.355 284.833 245.855 286.5 244.855C288.167 243.855 290.167 243.688 292.5 244.355ZM715 243.855C717 244.188 718.333 245.355 719 247.355C719.667 249.355 719.167 252.522 717.5 256.855C715.833 261.188 714.333 264.022 713 265.355C711.667 266.688 710 266.522 708 264.855C706 263.188 704.833 260.522 704.5 256.855C704.167 253.188 705.333 250.022 708 247.355C710.667 244.688 713 243.522 715 243.855ZM343 245.855C344.667 246.022 346.333 246.188 348 246.355C347.833 248.022 347.667 249.688 347.5 251.355C347.167 254.688 344.667 259.022 340 264.355C335.333 269.688 332 272.355 330 272.355C328 272.355 326.5 271.355 325.5 269.355C324.5 267.355 324.167 265.022 324.5 262.355C324.833 259.688 326.333 256.522 329 252.855C331.667 249.188 333.833 247.022 335.5 246.355C337.167 245.688 339.667 245.522 343 245.855ZM935.5 246.355C936.667 246.355 937.833 246.355 939 246.355C938 251.188 937 256.022 936 260.855C935 265.688 934 270.522 933 275.355C932 273.855 931 272.355 930 270.855C928 267.855 927.167 263.522 927.5 257.855C927.833 252.188 928.667 248.855 930 247.855C931.333 246.855 933.167 246.355 935.5 246.355ZM271 254.355C271.667 256.688 272.333 259.022 273 261.355C274.333 266.022 276 269.188 278 270.855C279 271.688 280 272.522 281 273.355C280.167 274.188 279.333 275.022 278.5 275.855C276.833 277.522 274.5 278.188 271.5 277.855C268.5 277.522 266.667 276.522 266 274.855C265.333 273.188 265.5 270.022 266.5 265.355C267.5 260.688 268.5 257.688 269.5 256.355C270 255.688 270.5 255.022 271 254.355ZM694 254.355C694.667 256.688 695.333 259.022 696 261.355C697.333 266.022 699 269.188 701 270.855C702 271.688 703 272.522 704 273.355C703.167 274.188 702.333 275.022 701.5 275.855C699.833 277.522 697.833 278.355 695.5 278.355C693.167 278.355 691.333 277.522 690 275.855C688.667 274.188 688 272.188 688 269.855C688 267.522 689 264.355 691 260.355C692 258.355 693 256.355 694 254.355ZM816 269.855C813.333 277.522 812 282.688 812 285.355C812 288.022 813.333 292.688 816 299.355C818.667 306.022 819.333 318.355 818 336.355C817.333 345.355 816.667 354.355 816 363.355C816.333 363.188 816.667 363.022 817 362.855C817.667 362.522 819 355.688 821 342.355C823 329.022 824 319.355 824 313.355C824 307.355 823 301.522 821 295.855C819 290.188 818.333 282.522 819 272.855C819.333 268.022 819.667 263.188 820 258.355C818.667 262.188 817.333 266.022 816 269.855ZM510 274.355C510.167 275.522 510.333 276.688 510.5 277.855C510.833 280.188 510.5 282.022 509.5 283.355C509 284.022 508.5 284.688 508 285.355C508.333 283.522 508.667 281.688 509 279.855C509.333 278.022 509.667 276.188 510 274.355ZM555 274.355C555.333 274.355 555.667 274.355 556 274.355C555.833 275.688 555.667 277.022 555.5 278.355C555.167 281.022 554.5 282.855 553.5 283.855C553 284.355 552.5 284.855 552 285.355C552.333 283.522 552.667 281.688 553 279.855C553.667 276.188 554.333 274.355 555 274.355ZM852 287.355C852.333 287.355 852.667 287.355 853 287.355C852.833 288.188 852.667 289.022 852.5 289.855C852.333 290.688 852.167 291.522 852 292.355C853.667 292.022 855.333 291.688 857 291.355C860.333 290.688 862.667 291.188 864 292.855C865.333 294.522 866 296.188 866 297.855C866 298.688 866 299.522 866 300.355C869 298.522 872 296.688 875 294.855C881 291.188 885.167 289.522 887.5 289.855C888.667 290.022 889.833 290.188 891 290.355C890.167 292.188 889.333 294.022 888.5 295.855C887.667 297.688 886.833 299.522 886 301.355C888 299.855 890 298.355 892 296.855C896 293.855 899.333 292.355 902 292.355C904.667 292.355 907.833 293.022 911.5 294.355C915.167 295.688 918.167 298.522 920.5 302.855C922.833 307.188 925.5 311.022 928.5 314.355C931.5 317.688 933.833 321.522 935.5 325.855C937.167 330.188 936.167 334.355 932.5 338.355C928.833 342.355 924.5 345.855 919.5 348.855C914.5 351.855 911.5 353.355 910.5 353.355C909.5 353.355 908.833 352.355 908.5 350.355C908.167 348.355 907.5 347.188 906.5 346.855C906 346.688 905.5 346.522 905 346.355C905.167 348.855 905.333 351.355 905.5 353.855C905.667 356.355 905.833 358.855 906 361.355C905.667 361.355 905.333 361.355 905 361.355C904.333 361.355 902.833 359.188 900.5 354.855C898.167 350.522 895.167 347.022 891.5 344.355C889.667 343.022 887.833 341.688 886 340.355C887.833 343.688 889.667 347.022 891.5 350.355C895.167 357.022 897 361.522 897 363.855C897 365.022 897 366.188 897 367.355C896.667 367.355 896.333 367.355 896 367.355C895.333 367.355 894.5 365.855 893.5 362.855C892.5 359.855 891.5 358.188 890.5 357.855C890 357.688 889.5 357.522 889 357.355C889.167 360.188 889.333 363.022 889.5 365.855C889.667 368.688 889.833 371.522 890 374.355C889.333 372.022 888.667 369.688 888 367.355C886.667 362.688 885.667 360.355 885 360.355C884.667 360.355 884.333 360.355 884 360.355C884.167 362.855 884.333 365.355 884.5 367.855C884.667 370.355 884.833 372.855 885 375.355C883.833 374.522 882.667 373.688 881.5 372.855C879.167 371.188 875.333 370.188 870 369.855C864.667 369.522 860.167 367.355 856.5 363.355C852.833 359.355 850 355.022 848 350.355C846 345.688 845.167 341.022 845.5 336.355C845.833 331.688 848 326.688 852 321.355C854 318.688 856 316.022 858 313.355C855.333 313.022 852.667 312.688 850 312.355C844.667 311.688 842.167 309.355 842.5 305.355C842.833 301.355 844.333 297.355 847 293.355C849.667 289.355 851.333 287.355 852 287.355ZM939 295.355C942 297.022 945 298.688 948 300.355C954 303.688 958.667 305.188 962 304.855C963.667 304.688 965.333 304.522 967 304.355C964.833 306.688 962.667 309.022 960.5 311.355C956.167 316.022 952 319.355 948 321.355C944 323.355 940.5 321.855 937.5 316.855C934.5 311.855 931.333 307.855 928 304.855C924.667 301.855 923.5 299.688 924.5 298.355C925.5 297.022 926.667 296.355 928 296.355C929.333 296.355 931 298.188 933 301.855C935 305.522 938.167 309.188 942.5 312.855C944.667 314.688 946.833 316.522 949 318.355C946.833 315.188 944.667 312.022 942.5 308.855C940.333 305.688 938.167 302.522 936 299.355C937.833 300.688 939.667 302.022 941.5 303.355C945.167 306.022 947.667 307.355 949 307.355C949.667 307.355 950.333 307.355 951 307.355C949 305.355 947 303.355 945 301.355C943 299.355 941 297.355 939 295.355ZM348 301.355C348.167 303.522 348.333 305.688 348.5 307.855C348.833 312.188 348.333 318.522 347 326.855C345.667 335.188 344.333 341.355 343 345.355C341.667 349.355 340.167 351.855 338.5 352.855C337.667 353.355 336.833 353.855 336 354.355C335.5 352.855 335 351.355 334.5 349.855C333.5 346.855 333.167 343.355 333.5 339.355C333.833 335.355 335 330.355 337 324.355C339 318.355 341.333 313.022 344 308.355C345.333 306.022 346.667 303.688 348 301.355Z" fill="#000000" fill-rule="nonzero" opacity="1" stroke="none"/>
</g>
</svg>
